<svg xmlns="http://www.w3.org/2000/svg" data-name="Layer 1" viewBox="0 0 100 125" x="0px" y="0px">
<path d="M10.23,83.41a2,2,0,0,0,2.83,0l8.66-8.66,3.54,3.54-8.66,8.66a2,2,0,1,0,2.83,2.83l8.66-8.66,2.12,2.12a9,9,0,0,0,12.73,0l8.31-8.31L55.3,79a2,2,0,0,0,2.83-2.83l-5.48-5.48h0L23.84,41.87A2,2,0,0,0,21,44.7l4.07,4.07-8.31,8.31a9,9,0,0,0,0,12.73l2.12,2.12-8.66,8.66A2,2,0,0,0,10.23,83.41ZM19.59,59.9l8.31-8.31L48.41,72.1,40.1,80.41a5,5,0,0,1-7.07,0L19.59,67A5,5,0,0,1,19.59,59.9Z"/><path d="M83.41,13.05a2,2,0,0,0-2.83-2.83l-8.66,8.66-2.83-2.83a8,8,0,0,0-11.31,0l-9,9L44.7,21a2,2,0,0,0-2.83,2.83l8,8L41,40.63a2,2,0,1,0,2.83,2.83l8.84-8.84,12,12h0l-8.84,8.84a2,2,0,1,0,2.83,2.83l8.84-8.84h0l8.66,8.66A2,2,0,0,0,79,55.3l-4.07-4.07,9-9a8,8,0,0,0,0-11.31l-2.83-2.83,8.66-8.66a2,2,0,0,0-2.83-2.83l-8.66,8.66-3.54-3.54ZM82.28,36.56a4,4,0,0,1-1.17,2.83l-9,9L51.59,27.9l9-9a4,4,0,0,1,5.66,0L81.11,33.74A4,4,0,0,1,82.28,36.56Z"/>
</svg>