<svg height="480pt" viewBox="-72 0 480 480" width="480pt" xmlns="http://www.w3.org/2000/svg"><path d="m0 432h144v32h-144zm0 0" fill="#c6c5ca"/><path d="m0 448h144v16h-144zm0 0" fill="#e0e0e2"/><path d="m192 432h144v32h-144zm0 0" fill="#c6c5ca"/><path d="m192 448h144v16h-144zm0 0" fill="#e0e0e2"/><path d="m152 344h32v96h-32zm0 0" fill="#c6c5ca"/><path d="m152 344h16v96h-16zm0 0" fill="#e0e0e2"/><path d="m200 448c0 17.671875-14.328125 32-32 32s-32-14.328125-32-32 14.328125-32 32-32 32 14.328125 32 32zm0 0" fill="#f5b866"/><path d="m40 208h256v64h-256zm0 0" fill="#c6c5ca"/><path d="m40 208h224v64h-224zm0 0" fill="#e0e0e2"/><path d="m40 80h256v64h-256zm0 0" fill="#c6c5ca"/><path d="m40 80h232v64h-232zm0 0" fill="#e0e0e2"/><path d="m8 0h320v96h-320zm0 0" fill="#57565c"/><path d="m8 0h288v96h-288zm0 0" fill="#78767f"/><path d="m8 128h320v96h-320zm0 0" fill="#57565c"/><path d="m8 128h288v96h-288zm0 0" fill="#78767f"/><path d="m8 256h320v96h-320zm0 0" fill="#57565c"/><path d="m8 256h288v96h-288zm0 0" fill="#78767f"/><path d="m72 176c0 8.835938-7.164062 16-16 16s-16-7.164062-16-16 7.164062-16 16-16 16 7.164062 16 16zm0 0" fill="#c6c5ca"/><path d="m136 176c0 8.835938-7.164062 16-16 16s-16-7.164062-16-16 7.164062-16 16-16 16 7.164062 16 16zm0 0" fill="#c6c5ca"/><path d="m72 304c0 8.835938-7.164062 16-16 16s-16-7.164062-16-16 7.164062-16 16-16 16 7.164062 16 16zm0 0" fill="#c6c5ca"/><path d="m136 304c0 8.835938-7.164062 16-16 16s-16-7.164062-16-16 7.164062-16 16-16 16 7.164062 16 16zm0 0" fill="#c6c5ca"/><path d="m136 48c0 8.835938-7.164062 16-16 16s-16-7.164062-16-16 7.164062-16 16-16 16 7.164062 16 16zm0 0" fill="#c6c5ca"/><path d="m72 48c0 8.835938-7.164062 16-16 16s-16-7.164062-16-16 7.164062-16 16-16 16 7.164062 16 16zm0 0" fill="#c6c5ca"/><g fill="#f5b866"><path d="m288 24h16v16h-16zm0 0"/><path d="m288 56h16v16h-16zm0 0"/><path d="m256 24h16v16h-16zm0 0"/><path d="m256 56h16v16h-16zm0 0"/><path d="m224 24h16v16h-16zm0 0"/><path d="m224 56h16v16h-16zm0 0"/><path d="m192 24h16v16h-16zm0 0"/><path d="m192 56h16v16h-16zm0 0"/><path d="m288 152h16v16h-16zm0 0"/><path d="m288 184h16v16h-16zm0 0"/><path d="m256 152h16v16h-16zm0 0"/><path d="m256 184h16v16h-16zm0 0"/><path d="m224 152h16v16h-16zm0 0"/><path d="m224 184h16v16h-16zm0 0"/><path d="m192 152h16v16h-16zm0 0"/><path d="m192 184h16v16h-16zm0 0"/><path d="m288 280h16v16h-16zm0 0"/><path d="m288 312h16v16h-16zm0 0"/><path d="m256 280h16v16h-16zm0 0"/><path d="m256 312h16v16h-16zm0 0"/><path d="m224 280h16v16h-16zm0 0"/><path d="m224 312h16v16h-16zm0 0"/><path d="m192 280h16v16h-16zm0 0"/><path d="m192 312h16v16h-16zm0 0"/></g></svg>